<svg xmlns="http://www.w3.org/2000/svg" xmlns:xlink="http://www.w3.org/1999/xlink" width="500" zoomAndPan="magnify" viewBox="0 0 375 374.999991" height="500" preserveAspectRatio="xMidYMid meet" version="1.0"><defs><g/><clipPath id="9e0d9f2021"><path d="M 87.828125 370.75 L 297.828125 370.75 L 297.828125 375 L 87.828125 375 Z M 87.828125 370.75 " clip-rule="nonzero"/></clipPath><clipPath id="5defa5fdc9"><path d="M 44.085938 142.710938 L 132 142.710938 L 132 232.414062 L 44.085938 232.414062 Z M 44.085938 142.710938 " clip-rule="nonzero"/></clipPath><clipPath id="a4e7bb2e7c"><path d="M 129 178 L 148.652344 178 L 148.652344 209 L 129 209 Z M 129 178 " clip-rule="nonzero"/></clipPath><clipPath id="61f5e8a938"><path d="M 60 159 L 128 159 L 128 177 L 60 177 Z M 60 159 " clip-rule="nonzero"/></clipPath><clipPath id="f0d6dbe105"><path d="M 60.214844 167.375 L 127.035156 159.25 L 128.148438 168.421875 L 61.328125 176.546875 Z M 60.214844 167.375 " clip-rule="nonzero"/></clipPath><clipPath id="11950cae87"><path d="M 60.214844 167.375 L 126.738281 159.285156 L 127.800781 168.03125 L 61.277344 176.121094 Z M 60.214844 167.375 " clip-rule="nonzero"/></clipPath><clipPath id="b658dbee3c"><path d="M 61.128906 174.175781 L 128.636719 174.175781 L 128.636719 219.328125 L 61.128906 219.328125 Z M 61.128906 174.175781 " clip-rule="nonzero"/></clipPath><clipPath id="e6a7133dfe"><path d="M 61.003906 168 L 69 168 L 69 181 L 61.003906 181 Z M 61.003906 168 " clip-rule="nonzero"/></clipPath><clipPath id="4d48f38a14"><path d="M 62 179 L 127.351562 179 L 127.351562 218.105469 L 62 218.105469 Z M 62 179 " clip-rule="nonzero"/></clipPath><clipPath id="c960b4532d"><path d="M 61.003906 175 L 127.351562 175 L 127.351562 182 L 61.003906 182 Z M 61.003906 175 " clip-rule="nonzero"/></clipPath><clipPath id="b625dfed72"><path d="M 61.003906 160.25 L 127 160.25 L 127 176 L 61.003906 176 Z M 61.003906 160.25 " clip-rule="nonzero"/></clipPath><clipPath id="ea4f0ce110"><path d="M 61.003906 167 L 69 167 L 69 175 L 61.003906 175 Z M 61.003906 167 " clip-rule="nonzero"/></clipPath><clipPath id="bd8817f20d"><path d="M 61.003906 181 L 127.351562 181 L 127.351562 182 L 61.003906 182 Z M 61.003906 181 " clip-rule="nonzero"/></clipPath><clipPath id="9b72b26d10"><path d="M 61.828125 181.625 L 127.324219 181.625 L 127.324219 218.128906 L 61.828125 218.128906 Z M 61.828125 181.625 " clip-rule="nonzero"/></clipPath><clipPath id="6c422bb53a"><path d="M 77.855469 183.535156 L 110.726562 183.535156 L 110.726562 216.40625 L 77.855469 216.40625 Z M 77.855469 183.535156 " clip-rule="nonzero"/></clipPath><clipPath id="e1eebbfcc8"><path d="M 94.289062 183.535156 C 85.214844 183.535156 77.855469 190.894531 77.855469 199.96875 C 77.855469 209.046875 85.214844 216.40625 94.289062 216.40625 C 103.367188 216.40625 110.726562 209.046875 110.726562 199.96875 C 110.726562 190.894531 103.367188 183.535156 94.289062 183.535156 " clip-rule="nonzero"/></clipPath><clipPath id="bd2fd266b7"><path d="M 79.167969 184.847656 L 109.421875 184.847656 L 109.421875 215.101562 L 79.167969 215.101562 Z M 79.167969 184.847656 " clip-rule="nonzero"/></clipPath><clipPath id="0991768d4a"><path d="M 88.402344 190.921875 L 105.328125 190.921875 L 105.328125 209.054688 L 88.402344 209.054688 Z M 88.402344 190.921875 " clip-rule="nonzero"/></clipPath><clipPath id="01635c54e3"><path d="M 105.328125 199.96875 L 88.402344 209.015625 L 88.402344 190.921875 L 105.328125 199.96875 " clip-rule="nonzero"/></clipPath><clipPath id="5d6fa40fe0"><path d="M 89.089844 191.960938 L 104.074219 191.960938 L 104.074219 208 L 89.089844 208 Z M 89.089844 191.960938 " clip-rule="nonzero"/></clipPath><clipPath id="64ab37cafa"><path d="M 104.074219 199.96875 L 89.089844 207.976562 L 89.089844 191.960938 L 104.074219 199.96875 " clip-rule="nonzero"/></clipPath></defs><g clip-path="url(#9e0d9f2021)"><path fill="#d9d9d9" d="M 93.753906 370.746094 C 90.507812 370.746094 87.894531 373.359375 87.894531 376.605469 L 87.894531 480.28125 C 87.894531 483.523438 90.507812 486.136719 93.753906 486.136719 L 182.5 486.136719 C 180.195312 489.589844 177.609375 494.007812 177.171875 496.980469 L 166.582031 496.980469 C 166.152344 496.980469 165.804688 497.328125 165.804688 497.757812 L 165.804688 501.976562 C 165.804688 502.40625 166.152344 502.75 166.582031 502.75 L 219.070312 502.75 C 219.5 502.75 219.847656 502.40625 219.847656 501.976562 L 219.847656 497.757812 C 219.847656 497.328125 219.5 496.980469 219.070312 496.980469 L 208.480469 496.980469 C 208.042969 494.007812 205.457031 489.589844 203.152344 486.136719 L 291.898438 486.136719 C 295.144531 486.136719 297.757812 483.523438 297.757812 480.28125 L 297.757812 376.605469 C 297.757812 373.359375 295.144531 370.746094 291.898438 370.746094 Z M 92.617188 377.007812 L 293.03125 377.007812 L 293.03125 479.878906 L 92.617188 479.878906 Z M 92.617188 377.007812 " fill-opacity="1" fill-rule="nonzero"/></g><g clip-path="url(#5defa5fdc9)"><path fill="#004aad" d="M 110.042969 142.765625 C 99.363281 142.765625 90.5 150.550781 88.800781 160.765625 L 86.160156 161.265625 C 83.054688 156.011719 77.34375 152.488281 70.804688 152.488281 C 60.949219 152.488281 52.964844 160.484375 52.964844 170.355469 C 52.964844 178.75 58.738281 185.785156 66.527344 187.707031 L 66.527344 189.703125 L 62.914062 189.703125 L 62.898438 189.542969 L 58.621094 187.949219 L 55.621094 187.949219 L 60.355469 197.820312 L 62.101562 197.347656 L 63.074219 195.757812 L 66.527344 195.757812 L 66.527344 218.074219 L 72.246094 218.074219 L 71.582031 223.042969 L 57.972656 225.640625 L 55.039062 224.113281 L 44.089844 226.207031 L 44.847656 232.359375 L 55.851562 230.265625 L 58.394531 227.699219 L 73.183594 224.503906 L 74.238281 218.074219 L 128.527344 218.074219 L 128.527344 180.972656 L 123.761719 180.972656 C 128.542969 177.011719 131.589844 171.03125 131.589844 164.335938 C 131.589844 152.417969 121.9375 142.765625 110.042969 142.765625 Z M 91.328125 175.015625 C 92.625 177.289062 94.316406 179.3125 96.320312 180.972656 L 85.15625 180.972656 C 86.324219 179.386719 87.230469 177.605469 87.828125 175.679688 Z M 122.304688 210.578125 C 123.378906 210.578125 124.25 211.449219 124.25 212.523438 C 124.25 213.601562 123.378906 214.472656 122.304688 214.472656 C 121.230469 214.472656 120.359375 213.601562 120.359375 212.523438 C 120.359375 211.449219 121.230469 210.578125 122.304688 210.578125 Z M 122.304688 210.578125 " fill-opacity="1" fill-rule="nonzero"/></g><path fill="#00bf63" d="M 109.730469 152.929688 C 103.71875 152.929688 98.84375 157.8125 98.84375 163.835938 C 98.84375 169.859375 103.71875 174.742188 109.730469 174.742188 C 115.742188 174.742188 120.617188 169.859375 120.617188 163.835938 C 120.617188 157.8125 115.742188 152.929688 109.730469 152.929688 Z M 108.691406 156.148438 C 109.664062 156.148438 110.457031 156.933594 110.457031 157.910156 C 110.457031 158.886719 109.664062 159.679688 108.691406 159.679688 C 107.714844 159.679688 106.921875 158.886719 106.921875 157.910156 C 106.921875 156.933594 107.714844 156.148438 108.691406 156.148438 Z M 114.144531 159.460938 C 115.117188 159.460938 115.910156 160.253906 115.910156 161.230469 C 115.910156 162.207031 115.117188 163.003906 114.144531 163.003906 C 113.167969 163.003906 112.375 162.207031 112.375 161.230469 C 112.375 160.257812 113.167969 159.460938 114.144531 159.460938 Z M 104.523438 160.851562 C 105.496094 160.851562 106.28125 161.648438 106.28125 162.625 C 106.28125 163.601562 105.496094 164.394531 104.523438 164.394531 C 103.546875 164.394531 102.753906 163.601562 102.753906 162.625 C 102.753906 161.648438 103.546875 160.851562 104.523438 160.851562 Z M 113.5 165.683594 C 114.476562 165.683594 115.269531 166.46875 115.269531 167.441406 C 115.269531 168.417969 114.476562 169.214844 113.5 169.214844 C 112.527344 169.214844 111.734375 168.417969 111.734375 167.441406 C 111.734375 166.46875 112.527344 165.683594 113.5 165.683594 Z M 106.980469 166.75 C 107.953125 166.75 108.746094 167.535156 108.746094 168.511719 C 108.746094 169.488281 107.953125 170.285156 106.980469 170.285156 C 106.007812 170.285156 105.214844 169.488281 105.214844 168.511719 C 105.214844 167.535156 106.007812 166.75 106.980469 166.75 Z M 106.980469 166.75 " fill-opacity="1" fill-rule="nonzero"/><path fill="#00bf63" d="M 70.847656 160.71875 C 65.980469 160.71875 62.035156 164.671875 62.035156 169.550781 C 62.035156 174.425781 65.980469 178.378906 70.847656 178.378906 C 75.714844 178.378906 79.660156 174.425781 79.660156 169.550781 C 79.660156 164.671875 75.714844 160.71875 70.847656 160.71875 Z M 70.007812 163.324219 C 70.796875 163.324219 71.4375 163.960938 71.4375 164.75 C 71.4375 165.542969 70.796875 166.183594 70.007812 166.183594 C 69.21875 166.183594 68.578125 165.542969 68.578125 164.75 C 68.578125 163.960938 69.21875 163.324219 70.007812 163.324219 Z M 74.421875 166.007812 C 75.210938 166.007812 75.851562 166.652344 75.851562 167.441406 C 75.851562 168.230469 75.210938 168.875 74.421875 168.875 C 73.632812 168.875 72.992188 168.230469 72.992188 167.441406 C 72.992188 166.652344 73.632812 166.007812 74.421875 166.007812 Z M 66.632812 167.132812 C 67.421875 167.132812 68.054688 167.777344 68.054688 168.566406 C 68.054688 169.359375 67.421875 170 66.632812 170 C 65.84375 170 65.203125 169.359375 65.203125 168.566406 C 65.203125 167.777344 65.84375 167.132812 66.632812 167.132812 Z M 73.902344 171.042969 C 74.6875 171.042969 75.332031 171.679688 75.332031 172.46875 C 75.332031 173.257812 74.691406 173.902344 73.902344 173.902344 C 73.113281 173.902344 72.46875 173.257812 72.46875 172.46875 C 72.46875 171.679688 73.113281 171.042969 73.902344 171.042969 Z M 68.621094 171.910156 C 69.410156 171.910156 70.054688 172.546875 70.054688 173.335938 C 70.054688 174.125 69.410156 174.769531 68.621094 174.769531 C 67.832031 174.769531 67.191406 174.125 67.191406 173.335938 C 67.191406 172.546875 67.832031 171.910156 68.621094 171.910156 Z M 68.621094 171.910156 " fill-opacity="1" fill-rule="nonzero"/><g clip-path="url(#a4e7bb2e7c)"><path fill="#004aad" d="M 148.65625 178.683594 L 137.722656 185.324219 L 129.167969 185.324219 L 129.167969 201.863281 L 137.722656 201.863281 L 148.65625 208.5 Z M 148.65625 178.683594 " fill-opacity="1" fill-rule="nonzero"/></g><g clip-path="url(#61f5e8a938)"><g clip-path="url(#f0d6dbe105)"><g clip-path="url(#11950cae87)"><path fill="#004aad" d="M 60.214844 167.375 L 126.597656 159.304688 L 127.660156 168.039062 L 61.277344 176.109375 Z M 60.214844 167.375 " fill-opacity="1" fill-rule="nonzero"/></g></g></g><g clip-path="url(#b658dbee3c)"><path fill="#004aad" d="M 61.128906 174.175781 L 128.441406 174.175781 L 128.441406 219.488281 L 61.128906 219.488281 Z M 61.128906 174.175781 " fill-opacity="1" fill-rule="nonzero"/></g><g clip-path="url(#e6a7133dfe)"><path fill="#000000" d="M 61.871094 169.738281 L 61.871094 179.46875 C 61.871094 179.65625 61.910156 179.839844 61.984375 180.015625 C 62.054688 180.1875 62.160156 180.34375 62.292969 180.476562 C 62.429688 180.613281 62.585938 180.714844 62.761719 180.785156 C 62.9375 180.859375 63.121094 180.894531 63.3125 180.894531 L 67.28125 180.894531 C 67.472656 180.894531 67.65625 180.859375 67.832031 180.785156 C 68.007812 180.714844 68.164062 180.613281 68.300781 180.476562 C 68.433594 180.34375 68.539062 180.1875 68.609375 180.015625 C 68.683594 179.839844 68.71875 179.65625 68.71875 179.46875 L 68.71875 169.738281 C 68.71875 169.550781 68.683594 169.367188 68.609375 169.191406 C 68.539062 169.019531 68.433594 168.863281 68.300781 168.730469 C 68.164062 168.597656 68.007812 168.492188 67.832031 168.421875 C 67.65625 168.347656 67.472656 168.3125 67.28125 168.3125 L 63.3125 168.3125 C 63.121094 168.3125 62.9375 168.347656 62.761719 168.421875 C 62.585938 168.492188 62.429688 168.597656 62.292969 168.730469 C 62.160156 168.863281 62.054688 169.019531 61.984375 169.191406 C 61.910156 169.367188 61.871094 169.550781 61.871094 169.738281 " fill-opacity="1" fill-rule="evenodd"/></g><g clip-path="url(#4d48f38a14)"><path fill="#000000" d="M 63.339844 179.363281 L 125.773438 179.363281 C 125.9375 179.363281 126.097656 179.394531 126.25 179.460938 C 126.402344 179.523438 126.535156 179.613281 126.652344 179.726562 C 126.765625 179.84375 126.855469 179.976562 126.917969 180.128906 C 126.980469 180.28125 127.011719 180.4375 127.011719 180.601562 L 127.011719 216.871094 C 127.011719 217.035156 126.980469 217.191406 126.917969 217.34375 C 126.855469 217.496094 126.765625 217.628906 126.652344 217.746094 C 126.535156 217.859375 126.402344 217.949219 126.25 218.011719 C 126.097656 218.074219 125.9375 218.105469 125.773438 218.105469 L 63.339844 218.105469 C 63.175781 218.105469 63.015625 218.074219 62.863281 218.011719 C 62.714844 217.949219 62.578125 217.859375 62.464844 217.746094 C 62.347656 217.628906 62.257812 217.496094 62.195312 217.34375 C 62.132812 217.191406 62.101562 217.035156 62.101562 216.871094 L 62.101562 180.601562 C 62.101562 180.4375 62.132812 180.28125 62.195312 180.128906 C 62.257812 179.976562 62.347656 179.84375 62.464844 179.726562 C 62.578125 179.613281 62.714844 179.523438 62.863281 179.460938 C 63.015625 179.394531 63.175781 179.363281 63.339844 179.363281 " fill-opacity="1" fill-rule="evenodd"/></g><g clip-path="url(#c960b4532d)"><path fill="#000000" d="M 61.796875 175.003906 L 127.316406 175.003906 L 127.316406 181.804688 L 61.796875 181.804688 Z M 61.796875 175.003906 " fill-opacity="1" fill-rule="evenodd"/></g><path fill="#ffffff" d="M 68.746094 181.421875 L 75.015625 181.421875 L 78.3125 175.382812 L 72.046875 175.382812 Z M 68.746094 181.421875 " fill-opacity="1" fill-rule="evenodd"/><path fill="#ffffff" d="M 84.796875 181.421875 L 91.066406 181.421875 L 94.367188 175.382812 L 88.097656 175.382812 Z M 84.796875 181.421875 " fill-opacity="1" fill-rule="evenodd"/><path fill="#ffffff" d="M 100.851562 181.421875 L 107.117188 181.421875 L 110.417969 175.382812 L 104.148438 175.382812 Z M 100.851562 181.421875 " fill-opacity="1" fill-rule="evenodd"/><path fill="#ffffff" d="M 116.902344 181.421875 L 123.171875 181.421875 L 126.46875 175.382812 L 120.203125 175.382812 Z M 116.902344 181.421875 " fill-opacity="1" fill-rule="evenodd"/><g clip-path="url(#b625dfed72)"><path fill="#000000" d="M 126.050781 160.25 L 61.03125 168.285156 L 61.878906 175.035156 L 126.894531 167 Z M 126.050781 160.25 " fill-opacity="1" fill-rule="evenodd"/></g><path fill="#ffffff" d="M 126.019531 166.722656 L 119.800781 167.492188 L 115.773438 161.902344 L 121.996094 161.136719 Z M 126.019531 166.722656 " fill-opacity="1" fill-rule="evenodd"/><path fill="#ffffff" d="M 110.089844 168.691406 L 103.871094 169.460938 L 99.84375 163.871094 L 106.066406 163.101562 Z M 110.089844 168.691406 " fill-opacity="1" fill-rule="evenodd"/><path fill="#ffffff" d="M 94.160156 170.660156 L 87.941406 171.429688 L 83.914062 165.839844 L 90.136719 165.070312 Z M 94.160156 170.660156 " fill-opacity="1" fill-rule="evenodd"/><path fill="#ffffff" d="M 78.230469 172.628906 L 72.011719 173.398438 L 67.988281 167.808594 L 74.207031 167.039062 Z M 78.230469 172.628906 " fill-opacity="1" fill-rule="evenodd"/><path fill="#ffffff" d="M 66.621094 170.851562 C 66.644531 171.03125 66.632812 171.207031 66.585938 171.382812 C 66.539062 171.558594 66.457031 171.71875 66.347656 171.859375 C 66.234375 172.003906 66.101562 172.121094 65.941406 172.210938 C 65.78125 172.300781 65.613281 172.355469 65.433594 172.378906 C 65.25 172.402344 65.070312 172.390625 64.894531 172.339844 C 64.71875 172.292969 64.558594 172.210938 64.417969 172.101562 C 64.273438 171.988281 64.15625 171.851562 64.066406 171.695312 C 63.976562 171.535156 63.921875 171.367188 63.902344 171.1875 C 63.878906 171.007812 63.890625 170.828125 63.9375 170.65625 C 63.984375 170.480469 64.0625 170.320312 64.175781 170.175781 C 64.289062 170.03125 64.421875 169.917969 64.582031 169.828125 C 64.738281 169.738281 64.910156 169.679688 65.089844 169.65625 C 65.273438 169.636719 65.449219 169.648438 65.625 169.695312 C 65.800781 169.746094 65.960938 169.824219 66.105469 169.9375 C 66.25 170.050781 66.367188 170.183594 66.453125 170.34375 C 66.542969 170.5 66.597656 170.671875 66.621094 170.851562 Z M 66.621094 170.851562 " fill-opacity="1" fill-rule="evenodd"/><g clip-path="url(#ea4f0ce110)"><path stroke-linecap="butt" transform="matrix(0.0951285, -0.0117562, 0.0118373, 0.0944764, 52.672069, 156.449097)" fill="none" stroke-linejoin="miter" d="M 125.717386 168.08874 C 125.726949 169.991858 125.377646 171.808976 124.664413 173.580807 C 123.95118 175.352638 122.894282 176.91632 121.579659 178.2412 C 120.219533 179.601765 118.692689 180.65216 116.918252 181.382321 C 115.143816 182.112483 113.334104 182.466138 111.443614 182.478972 C 109.512687 182.486774 107.667795 182.133165 105.914005 181.37743 C 104.155149 180.66241 102.603638 179.601075 101.289776 178.279888 C 99.940543 176.912953 98.904767 175.336946 98.177381 173.592582 C 97.455062 171.807502 97.106806 169.986277 97.13768 168.08819 C 97.128118 166.185071 97.482487 164.327238 98.190653 162.596123 C 98.903886 160.824291 99.920348 159.255578 101.280474 157.895013 C 102.6406 156.534449 104.162378 155.52477 105.936815 154.794608 C 107.670814 154.059415 109.526029 153.670075 111.416519 153.657241 C 113.34238 153.690155 115.146835 154.038733 116.905691 154.753752 C 118.659481 155.509488 120.216059 156.530107 121.565291 157.897041 C 122.914523 159.263976 123.955366 160.799267 124.637249 162.579315 C 125.364635 164.323679 125.707824 166.185621 125.717386 168.08874 Z M 125.717386 168.08874 " stroke="#ffffff" stroke-width="4" stroke-opacity="1" stroke-miterlimit="4"/></g><g clip-path="url(#bd8817f20d)"><path stroke-linecap="butt" transform="matrix(0.13819, 0, 0, 0.138081, 42.736499, 121.184567)" fill="none" stroke-linejoin="miter" d="M 137.844201 439.074905 L 612.05626 439.074905 " stroke="#cccccc" stroke-width="0.692" stroke-opacity="1" stroke-miterlimit="4"/></g><path stroke-linecap="butt" transform="matrix(0.0958623, 0, 0, 0.0952055, 54.733722, 148.028911)" fill="none" stroke-linejoin="miter" d="M 104.119421 618.341498 L 726.716882 618.341498 " stroke="#ffffff" stroke-width="4" stroke-opacity="1" stroke-miterlimit="4"/><path stroke-linecap="butt" transform="matrix(0.0958623, 0, 0, 0.0952055, 52.741441, 148.028911)" fill="none" stroke-linejoin="miter" d="M 307.94476 713.161035 L 307.94476 619.32621 " stroke="#ffffff" stroke-width="4" stroke-opacity="1" stroke-miterlimit="4"/><path stroke-linecap="butt" transform="matrix(0.0958623, 0, 0, 0.0952055, 52.741441, 148.028911)" fill="none" stroke-linejoin="miter" d="M 564.416284 713.161035 L 564.416284 619.32621 " stroke="#ffffff" stroke-width="4" stroke-opacity="1" stroke-miterlimit="4"/><path stroke-linecap="butt" transform="matrix(0.0958623, 0, 0, 0.0952055, 54.733722, 148.028911)" fill="none" stroke-linejoin="miter" d="M 104.119421 524.506672 L 726.716882 524.506672 " stroke="#ffffff" stroke-width="4" stroke-opacity="1" stroke-miterlimit="4"/><path stroke-linecap="butt" transform="matrix(0.0958623, 0, 0, 0.0952055, 54.733722, 148.028911)" fill="none" stroke-linejoin="miter" d="M 104.119421 430.630817 L 726.716882 430.630817 " stroke="#ffffff" stroke-width="4" stroke-opacity="1" stroke-miterlimit="4"/><g clip-path="url(#9b72b26d10)"><path fill="#000000" d="M 61.828125 181.625 L 127.078125 181.625 L 127.078125 218.042969 L 61.828125 218.042969 Z M 61.828125 181.625 " fill-opacity="1" fill-rule="nonzero"/></g><g clip-path="url(#6c422bb53a)"><g clip-path="url(#e1eebbfcc8)"><path fill="#00bf63" d="M 77.855469 183.535156 L 110.726562 183.535156 L 110.726562 216.40625 L 77.855469 216.40625 Z M 77.855469 183.535156 " fill-opacity="1" fill-rule="nonzero"/></g></g><g clip-path="url(#bd2fd266b7)"><path fill="#d9d9d9" d="M 94.296875 184.847656 C 85.9375 184.847656 79.167969 191.617188 79.167969 199.976562 C 79.167969 208.332031 85.9375 215.101562 94.296875 215.101562 C 102.652344 215.101562 109.421875 208.332031 109.421875 199.976562 C 109.421875 191.617188 102.652344 184.847656 94.296875 184.847656 Z M 91.269531 206.78125 L 91.269531 193.167969 L 100.347656 199.976562 Z M 91.269531 206.78125 " fill-opacity="1" fill-rule="nonzero"/></g><g clip-path="url(#0991768d4a)"><g clip-path="url(#01635c54e3)"><path fill="#004aad" d="M 105.328125 190.921875 L 105.328125 209.054688 L 88.402344 209.054688 L 88.402344 190.921875 Z M 105.328125 190.921875 " fill-opacity="1" fill-rule="nonzero"/></g></g><g clip-path="url(#5d6fa40fe0)"><g clip-path="url(#64ab37cafa)"><path fill="#00bf63" d="M 104.074219 191.960938 L 104.074219 208.015625 L 89.089844 208.015625 L 89.089844 191.960938 Z M 104.074219 191.960938 " fill-opacity="1" fill-rule="nonzero"/></g></g><g fill="#ffffff" fill-opacity="1"><g transform="translate(159.733937, 210.048852)"><g><path d="M 26.546875 -40.929688 L 4.675781 -40.929688 L 4.675781 0 L 10.347656 0 L 10.347656 -18.769531 L 25.375 -18.769531 L 25.375 -23.039062 L 10.347656 -23.039062 L 10.347656 -36.542969 L 26.546875 -36.542969 Z M 26.546875 -40.929688 "/></g></g></g><g fill="#ffffff" fill-opacity="1"><g transform="translate(188.498043, 210.048852)"><g><path d="M 3.800781 0 L 9.238281 0 L 9.238281 -42.097656 L 3.800781 -42.097656 Z M 3.800781 0 "/></g></g></g><g fill="#ffffff" fill-opacity="1"><g transform="translate(201.535439, 210.048852)"><g><path d="M 6.375 -33.679688 C 8.1875 -33.679688 9.589844 -35.082031 9.589844 -36.835938 C 9.589844 -38.589844 8.1875 -39.996094 6.375 -39.996094 C 4.621094 -39.996094 3.214844 -38.589844 3.214844 -36.835938 C 3.214844 -35.082031 4.621094 -33.679688 6.375 -33.679688 Z M 9.238281 0 L 9.238281 -29.644531 L 3.800781 -29.644531 L 3.800781 0 Z M 9.238281 0 "/></g></g></g><g fill="#ffffff" fill-opacity="1"><g transform="translate(214.572835, 210.048852)"><g><path d="M 0.761719 0 L 6.78125 0 L 13.097656 -13.097656 L 13.449219 -13.097656 L 19.761719 0 L 25.785156 0 L 17.132812 -15.144531 L 25.433594 -29.585938 L 19.53125 -29.585938 L 13.449219 -17.25 L 13.097656 -17.25 L 7.015625 -29.585938 L 0.992188 -29.585938 L 9.414062 -15.144531 Z M 0.761719 0 "/></g></g></g><g fill="#ffffff" fill-opacity="1"><g transform="translate(241.115321, 210.048852)"><g><path d="M 30.929688 -40.929688 L 25.257812 -40.929688 L 25.257812 -23.15625 L 10.347656 -23.15625 L 10.347656 -40.929688 L 4.675781 -40.929688 L 4.675781 0 L 10.347656 0 L 10.347656 -18.886719 L 25.257812 -18.886719 L 25.257812 0 L 30.929688 0 Z M 30.929688 -40.929688 "/></g></g></g><g fill="#ffffff" fill-opacity="1"><g transform="translate(276.719674, 210.048852)"><g><path d="M 31.632812 -20.640625 C 31.632812 -33.738281 26.253906 -42.625 17.367188 -42.625 C 9.003906 -42.625 3.214844 -33.738281 3.214844 -20.699219 C 3.214844 -8.363281 8.304688 -0.0585938 16.488281 0.351562 C 17.542969 0.410156 18.476562 0.234375 19.414062 -0.117188 C 21.109375 3.683594 23.855469 5.261719 28.300781 5.261719 L 28.300781 2.515625 C 25.316406 2.515625 23.503906 1.8125 22.101562 -0.703125 C 28.242188 -3.566406 31.632812 -11.636719 31.632812 -20.640625 Z M 9.003906 -20.464844 C 9.003906 -31.046875 12.046875 -38.066406 17.425781 -38.066406 C 22.746094 -38.066406 25.667969 -31.691406 25.667969 -20.582031 C 25.667969 -12.6875 23.039062 -3.917969 17.367188 -3.917969 C 11.988281 -3.917969 9.003906 -10.992188 9.003906 -20.464844 Z M 9.003906 -20.464844 "/></g></g></g></svg>